# xmcd
#
# Track frame offsets: 
#        150
#        12289
#        22678
#        33127
#        45189
#        56881
#        68151
#        80310
#        90107
#        102172
#        114486
#        125204
#
# Disc length: 1807 seconds
#
# Revision: 0
# Processed by: cddbd v1.5.2PL0 Copyright (c) Steve Scherf et al.
# Submitted via: ExactAudioCopy v1.3
#
DISCID=83070d0c
DTITLE=Lightnin' Hopkins - Indian Spirit
DYEAR=2019
DGENRE=Blues
TTITLE0=Evil Hearted Woman
TTITLE1=Nothin' But The Blues
TTITLE2=Lightnin's Special
TTITLE3=Lonesome In Your Home
TTITLE4=Don't Think Cause You're Pretty
TTITLE5=Lightnin's Boogie
TTITLE6=My Baby's Gone
TTITLE7=Sick Feelin' Blues
TTITLE8=Sittin' Down Thinkin'
TTITLE9=Life I Used To Live
TTITLE10=Blues For My Cookie
TTITLE11=My Little Kewpie Doll
EXTD=
EXTT0=
EXTT1=
EXTT2=
EXTT3=
EXTT4=
EXTT5=
EXTT6=
EXTT7=
EXTT8=
EXTT9=
EXTT10=
EXTT11=
PLAYORDER=
